<?xml version="1.0" encoding="UTF-8" standalone="no"?><!DOCTYPE svg PUBLIC "-//W3C//DTD SVG 1.1//EN" "http://www.w3.org/Graphics/SVG/1.1/DTD/svg11.dtd"><svg width="100%" height="100%" viewBox="0 0 468 590" version="1.1" xmlns="http://www.w3.org/2000/svg" xmlns:xlink="http://www.w3.org/1999/xlink" xml:space="preserve" xmlns:serif="http://www.serif.com/" style="fill-rule:evenodd;clip-rule:evenodd;stroke-linejoin:round;stroke-miterlimit:2;"><g id="Object"><g><path d="M412.907,236.788l-0,-12.603c-0,-7.396 -5.289,-13.469 -12.388,-15.327c-0.612,2.282 -1.337,4.515 -2.046,6.751c0.768,5.979 1.337,12.022 1.337,18.208c-0,6.385 -0.502,12.649 -1.271,18.849c8.098,-1.135 14.368,-7.775 14.368,-15.878Z" style="fill:none;fill-rule:nonzero;"/><path d="M364.551,193.107c-57.434,-4.233 -215.102,-41.181 -215.102,-41.181c-9.55,16.964 -34.503,38.521 -53.972,52.354c-0.714,3.035 -1.386,6.058 -1.876,9.16c-1.053,6.67 -1.761,13.436 -1.761,20.377c0,4.957 0.315,9.835 0.865,14.664c0.896,8.243 2.639,16.237 5.023,23.978c17.369,56.539 71.795,97.94 136.153,97.94c64.358,0 118.76,-41.417 136.141,-97.952c2.379,-7.744 4.127,-15.723 5.035,-23.984c0.539,-4.812 0.853,-9.689 0.853,-14.646c-0,-6.942 -0.708,-13.708 -1.761,-20.377c-1.09,-6.911 -2.784,-13.581 -4.897,-20.129c-1.494,-0.013 -3.055,-0.08 -4.701,-0.204Z" style="fill:none;fill-rule:nonzero;"/><path d="M253.895,438.485l19.706,129.423l23.603,-0l36.663,-192.507c-3.607,-0.27 -7.19,-0.536 -10.858,-0.536l-11.819,0c-23.1,11.787 -49.379,18.52 -77.309,18.52c-27.93,0 -54.22,-6.733 -77.303,-18.52l-11.82,0c-3.685,0 -7.268,0.266 -10.857,0.536l36.663,192.507l23.585,0l19.706,-129.423l0.69,0l-19.342,-35.532l77.345,0l-19.342,35.532l0.689,0Z" style="fill:#fff;fill-rule:nonzero;"/><path d="M333.867,375.401l-36.663,192.507l-126.639,0l-36.663,-192.507c-74.858,5.571 -133.902,67.913 -133.902,144.214l0,70.243l467.758,0l0,-70.243c-0.001,-76.301 -59.039,-138.643 -133.891,-144.214Z" style="fill:#616e7d;fill-rule:nonzero;"/><path d="M194.149,567.908l79.452,-0l-19.706,-129.423l-0.689,-0l19.342,-35.532l-77.345,0l19.342,35.532l-0.69,-0l-19.706,129.423Z" style="fill:#aad4c8;fill-rule:nonzero;"/><path d="M30.943,224.184l-0,12.603c-0,21.575 18.235,39.102 40.646,39.102l2.39,0c12.225,42.864 42.582,78.55 82.599,98.975c23.082,11.787 49.373,18.52 77.303,18.52c27.93,0 54.208,-6.733 77.309,-18.52c40.016,-20.426 70.355,-56.112 82.58,-98.975l2.39,0c22.411,0 40.646,-17.527 40.646,-39.102l-0,-12.603c-0,-18.68 -13.72,-34.258 -31.973,-38.113c0.641,-5.617 1.083,-11.293 1.083,-17.103l-0.079,-1.634c0.03,-4.139 -0.109,-8.418 -0.66,-13.015l-0,-0.015c-2.499,-26.657 -11.783,-51.346 -26.114,-72.304c-7.384,-10.809 -16.195,-20.553 -26.018,-29.129c-26.26,-22.955 -60.297,-37.147 -97.698,-38.046l-1.888,-1.495c-1.61,-1.764 -3.371,-2.079 -4.563,-2.079c-2.802,0 -4.77,1.858 -6.361,3.383l-0.514,-0c-9.03,-9.048 -15.82,-14.634 -21.642,-14.634l-0.03,-0c-5.55,0.426 -31.58,9.665 -39.889,15.91c-1.852,1.386 -3.916,3.162 -6.101,5.129c-63.904,18.867 -110.559,77.923 -110.559,147.927c-0,1.072 0.079,2.124 0.097,3.177c-0.085,4.709 0.072,9.35 0.514,13.926c-18.948,3.295 -33.468,18.951 -33.468,38.115Zm369.576,-15.327c7.099,1.858 12.388,7.931 12.388,15.327l-0,12.603c-0,8.104 -6.27,14.743 -14.368,15.878c0.769,-6.2 1.271,-12.464 1.271,-18.849c-0,-6.186 -0.569,-12.228 -1.337,-18.208c0.708,-2.235 1.434,-4.469 2.046,-6.751Zm-306.918,4.582c0.49,-3.102 1.162,-6.125 1.876,-9.16c19.47,-13.832 44.422,-35.39 53.972,-52.354c-0,0 157.668,36.948 215.102,41.181c1.646,0.125 3.207,0.191 4.702,0.203c2.113,6.549 3.807,13.218 4.897,20.129c1.053,6.67 1.761,13.436 1.761,20.377c-0,4.957 -0.315,9.835 -0.853,14.646c-0.908,8.261 -2.657,16.241 -5.035,23.984c-17.382,56.535 -71.783,97.952 -136.141,97.952c-64.358,0 -118.784,-41.402 -136.153,-97.94c-2.385,-7.741 -4.127,-15.735 -5.023,-23.978c-0.55,-4.83 -0.865,-9.707 -0.865,-14.664c-0.002,-6.94 0.706,-13.707 1.76,-20.376Zm-38.758,10.745c-0,-7.962 6.088,-14.443 14.004,-15.702c0.048,3.068 0.157,6.088 0.224,9.157c-0.659,5.32 -1.132,10.682 -1.132,16.177c-0,6.385 0.485,12.649 1.259,18.849c-8.092,-1.135 -14.355,-7.774 -14.355,-15.878l-0,-12.603Z" style="fill:#616e7d;fill-rule:nonzero;"/></g></g></svg>